<?xml version="1.0" standalone="no"?>
<!DOCTYPE svg PUBLIC "-//W3C//DTD SVG 20010904//EN"
 "http://www.w3.org/TR/2001/REC-SVG-20010904/DTD/svg10.dtd">
<svg version="1.0" xmlns="http://www.w3.org/2000/svg"
 width="260.000000pt" height="260.000000pt" viewBox="0 0 260.000000 260.000000"
 preserveAspectRatio="xMidYMid meet">
<metadata>
Created by potrace 1.11, written by Peter Selinger 2001-2013
</metadata>
<g transform="translate(0.000000,260.000000) scale(0.100000,-0.100000)"
fill="#000000" stroke="none">
<path d="M1633 1693 c-14 -3 -24 -12 -24 -24 -1 -10 -2 -25 -3 -31 -1 -10 31
-14 117 -18 90 -4 120 -9 127 -20 13 -20 13 -246 0 -271 -9 -16 -22 -19 -86
-19 -73 0 -104 11 -104 38 0 6 24 41 54 80 62 80 79 109 69 115 -5 3 -45 4
-89 3 -76 -1 -83 -3 -105 -30 -13 -15 -32 -36 -41 -46 -49 -53 -50 -97 -3
-160 55 -75 67 -80 200 -80 123 0 168 13 217 62 43 43 61 176 37 272 -16 66
-74 117 -141 127 -56 8 -188 9 -225 2z"/>
<path d="M607 1539 c-10 -6 -17 -22 -17 -39 0 -28 3 -30 35 -30 l35 0 0 -195
0 -195 80 0 80 0 0 195 0 195 78 0 c42 0 83 -4 91 -9 28 -18 14 -60 -48 -140
-33 -44 -61 -82 -61 -85 0 -3 42 -6 93 -6 l93 0 30 41 c16 22 39 53 52 69 36
46 31 61 -46 151 -24 27 -45 40 -77 47 -58 12 -396 13 -418 1z"/>
<path d="M1310 1481 c-92 -119 -180 -239 -180 -245 0 -3 43 -6 95 -6 92 0 95
1 112 28 10 15 21 32 26 37 50 64 155 206 165 223 7 12 9 23 5 23 -5 1 -45 2
-90 4 l-82 2 -51 -66z"/>
</g>
</svg>
